<svg xmlns="http://www.w3.org/2000/svg" version="1.1" xmlns:xlink="http://www.w3.org/1999/xlink" xmlns:svgjs="http://svgjs.com/svgjs" width="256" height="256"><svg width="256" height="256" viewBox="0 0 256 256" fill="none" xmlns="http://www.w3.org/2000/svg">
<path d="M28.5984 195.249C26.8674 196.782 29.3463 195.604 30.3113 194.918C37.0557 190.121 42.7507 181.359 46.2026 173.978C54.4772 156.287 59.7742 137.31 66.7328 119.119C73.7229 100.846 81.0023 81.0504 94.8994 66.6763C98.5253 62.9259 103.808 58.3679 109.53 59.0727C115.776 59.8421 117.374 68.3903 118.237 73.3797C119.442 80.3534 119.104 87.4845 120.235 94.4848C121.453 102.022 122.152 109.655 123.756 117.13C124.787 121.936 125.851 128.092 128.561 132.289C131.404 136.692 137.399 131.888 139.504 129.21C144.045 123.437 147.599 117.302 153.112 112.297C156.743 109.001 163.823 105.639 167.79 110.379C173.91 117.691 173.756 129.279 177.068 137.927C180.308 146.389 184.046 155.276 191.008 161.377C202.83 171.736 215.841 163.449 229 161.993" stroke="white" stroke-width="12" stroke-linecap="round"></path>
<path d="M213 135C213 134.113 213 134.474 213 134" stroke="white" stroke-width="12" stroke-linecap="round"></path>
</svg><style>@media (prefers-color-scheme: light) { :root { filter: contrast(1) brightness(0.1); } }
@media (prefers-color-scheme: dark) { :root { filter: contrast(0.3846153846153846) brightness(4.5); } }
</style></svg>