<svg width="421" height="181" viewBox="0 0 421 181" fill="none" xmlns="http://www.w3.org/2000/svg">
<path d="M13.6605 148.801C11.8047 150.179 14.3753 149.218 15.3954 148.617C22.5256 144.415 28.9495 136.172 33.0202 129.114C42.7784 112.196 49.6798 93.7418 58.1694 76.2132C66.6975 58.6052 75.6442 39.5049 90.7203 26.3727C94.6538 22.9463 100.307 18.8572 105.948 20.049C112.105 21.35 112.966 30.0036 113.398 35.0485C114.003 42.0998 113.055 49.1758 113.583 56.2472C114.152 63.8607 114.196 71.5258 115.154 79.1103C115.77 83.9874 116.303 90.2114 118.644 94.6256C121.099 99.255 127.483 94.9816 129.811 92.4939C134.828 87.1307 138.895 81.3225 144.816 76.8078C148.715 73.8345 156.057 71.0905 159.604 76.1522C165.076 83.9616 163.931 95.4937 166.49 104.393C168.995 113.102 171.958 122.276 178.373 128.95C189.266 140.282 202.937 133.139 216.173 132.815" stroke="#000" stroke-width="12" stroke-linecap="round"/>
<path d="M209.14 77.4735C208.332 76.6652 206.548 74.3044 205.425 75.8768C201.468 81.4167 203.564 89.2162 205.914 94.8737C207.188 97.9416 212.642 104.319 210.606 108.136C208.353 112.361 190.413 113.083 191.544 108.559" stroke="#000" stroke-width="12" stroke-linecap="round"/>
<path d="M255.565 90.2999C255.063 81.7644 242.944 94.2814 241.815 96.0348C236.168 104.798 234.764 119.445 238.817 129.108C245.351 144.689 262.11 122.967 267.882 118.453" stroke="#000" stroke-width="12" stroke-linecap="round"/>
<path d="M286.325 95.0686C284.943 93.8404 284.565 95.6439 284.565 96.8282C284.565 100.188 284.979 103.543 285.477 106.864C286.759 115.406 287.919 124.86 292.353 132.476C295.49 137.865 294.942 134.366 298.055 134.366" stroke="#000" stroke-width="12" stroke-linecap="round"/>
<path d="M285.632 76.2324C285.177 75.7124 285.354 75.9238 285.632 75.6459" stroke="#000" stroke-width="12" stroke-linecap="round"/>
<path d="M324.208 26.7913C324.683 26.7913 324.449 26.7823 324.339 27.1823C323.02 31.9633 323.217 39.7955 322.97 43.996C321.579 67.6094 318.36 93.3549 323.557 116.725C324.573 121.295 327.318 128.337 330.855 131.975C337.659 138.97 332.096 130.84 338.871 134.712" stroke="#000" stroke-width="12" stroke-linecap="round"/>
<path d="M358.813 109.626C358.924 108.743 362.524 109.858 363.44 109.496C368.465 107.506 374.607 96.8005 372.434 91.5415C370.814 87.6242 363.08 90.8789 360.833 92.1606C347.879 99.5502 348.696 122.173 360.768 129.763C376.587 139.71 395.597 132.557 409.841 123.703" stroke="#000" stroke-width="12" stroke-linecap="round"/>
<path d="M307.199 65.5019C316.589 65.5019 325.977 64.7976 335.352 64.3289" stroke="#000" stroke-width="12" stroke-linecap="round"/>
</svg>